<svg width="769" height="186" viewBox="0 0 769 186" fill="none" xmlns="http://www.w3.org/2000/svg">
<path d="M2.66664 162.652L1.97046 163.37L1.97453 163.374L2.66664 162.652ZM70.7713 81.81L70.4326 82.7509L70.4344 82.7516L70.7713 81.81ZM70.695 81.7825L71.0338 80.8417L71.0225 80.8376L71.0112 80.8339L70.695 81.7825ZM70.6949 81.7825L70.3561 82.7234L70.3674 82.7274L70.3787 82.7312L70.6949 81.7825ZM109.411 34.7286L110.057 33.9649L110.052 33.9609L109.411 34.7286ZM113.696 38.351L113.05 39.1147L113.856 39.7957L114.493 38.955L113.696 38.351ZM126.929 20.8892L127.726 21.4932L128.316 20.7146L127.551 20.1065L126.929 20.8892ZM123.092 17.8378L122.453 18.6068L122.461 18.6137L122.47 18.6205L123.092 17.8378ZM60.7161 100.52L61.0591 99.5806L61.059 99.5806L60.7161 100.52ZM16.959 145.988L16.2776 146.72L16.2805 146.723L16.959 145.988ZM14.4821 143.683L15.1634 142.951L14.4124 142.252L13.7328 143.02L14.4821 143.683ZM0 160.066L-0.749238 159.404L-1.38165 160.119L-0.696165 160.784L0 160.066ZM690.902 62.9544L690.105 62.3506L689.648 62.9544L690.105 63.5582L690.902 62.9544ZM737.829 1V0H737.332L737.032 0.396209L737.829 1ZM705.159 81.7805L704.362 82.3842L705.161 83.4398L705.958 82.3821L705.159 81.7805ZM766 1L766.799 1.60162L768.005 0H766V1ZM737.554 183.504L736.761 184.114L737.061 184.504H737.554V183.504ZM690.902 122.824L690.109 122.214L689.641 122.824L690.109 123.433L690.902 122.824ZM766 183.504V184.504H768.027L766.794 182.896L766 183.504ZM705.205 104.22L705.998 103.611L705.206 102.578L704.412 103.61L705.205 104.22ZM189.436 21.5429V20.5429H188.436V21.5429H189.436ZM189.436 92.6335H188.436V93.6335H189.436V92.6335ZM166.718 1V0H165.718V1H166.718ZM166.718 185H165.718V186H166.718V185ZM189.436 113.182V112.182H188.436V113.182H189.436ZM189.436 185V186H190.436V185H189.436ZM339.443 185H338.443V186H339.443V185ZM361.973 185V186H362.973V185H361.973ZM339.443 1V0H338.443V1H339.443ZM361.973 1H362.973V0H361.973V1ZM432.777 39.5067L433.577 38.9063L431.661 36.3547L431.778 39.5433L432.777 39.5067ZM553.113 185L552.343 185.638L552.643 186H553.113V185ZM432.867 185V186H433.867L433.867 185L432.867 185ZM410.035 185H409.035V186H410.035V185ZM410.035 1V0H409.035V1H410.035ZM429.19 1L429.96 0.362048L429.66 0H429.19V1ZM549.505 146.488L548.706 147.088L550.608 149.624L550.505 146.455L549.505 146.488ZM549.421 1V0H548.421L548.421 1.00026L549.421 1ZM572.247 1H573.247V0H572.247V1ZM572.247 185V186H573.247V185H572.247ZM598.18 185L597.382 184.397L596.169 186H598.18V185ZM667.028 94.0003L667.825 94.6037L668.278 94.0051L667.83 93.4031L667.028 94.0003ZM626.328 185V186H626.825L627.125 185.604L626.328 185ZM695.408 93.9317L696.205 94.536L696.66 93.9356L696.208 93.3323L695.408 93.9317ZM625.814 1L626.614 0.400576L626.314 0H625.814V1ZM597.78 1V0H595.789L596.978 1.59722L597.78 1ZM66.6607 184C27.3345 184 5.63073 164.109 3.35874 161.93L1.97453 163.374C4.44558 165.743 26.6202 186 66.6607 186V184ZM128.169 136.126C128.169 150.189 121.9 162.124 111.101 170.567C100.286 179.023 84.8897 184 66.6607 184V186C85.2376 186 101.095 180.929 112.333 172.143C123.587 163.344 130.169 150.841 130.169 136.126H128.169ZM70.4344 82.7516C83.484 87.4213 97.9397 92.6051 109.147 100.744C120.302 108.845 128.169 119.82 128.169 136.126H130.169C130.169 119.026 121.856 107.502 110.322 99.1258C98.8409 90.7878 84.0979 85.5167 71.1083 80.8685L70.4344 82.7516ZM70.3562 82.7234L70.4326 82.7509L71.1101 80.8692L71.0338 80.8417L70.3562 82.7234ZM70.3787 82.7312L70.3788 82.7312L71.0112 80.8339L71.0112 80.8338L70.3787 82.7312ZM27.3212 49.4035C27.3212 58.443 32.5423 64.7594 40.442 69.7854C48.3062 74.7887 59.019 78.6409 70.3561 82.7234L71.0337 80.8417C59.6261 76.7338 49.1521 72.9564 41.5156 68.0979C33.9146 63.2621 29.3212 57.4842 29.3212 49.4035H27.3212ZM69.7648 20.6137C43.5674 20.6137 27.3212 34.9298 27.3212 49.4035H29.3212C29.3212 36.558 44.0628 22.6137 69.7648 22.6137V20.6137ZM110.052 33.9609C109.351 33.376 93.4592 20.6137 69.7648 20.6137V22.6137C92.7734 22.6137 108.217 35.0341 108.77 35.4962L110.052 33.9609ZM114.341 37.5874L110.057 33.9649L108.766 35.4922L113.05 39.1147L114.341 37.5874ZM126.132 20.2852L112.899 37.7471L114.493 38.955L127.726 21.4932L126.132 20.2852ZM122.47 18.6205L126.306 21.6718L127.551 20.1065L123.715 17.0552L122.47 18.6205ZM69.4855 2C101.854 2 120.49 16.9747 122.453 18.6068L123.732 17.0689C121.573 15.2742 102.497 0 69.4855 0V2ZM6.00127 49.6309C6.00127 26.4434 29.4894 2 69.4855 2V0C28.755 0 4.00127 25.0019 4.00127 49.6309H6.00127ZM61.059 99.5806C47.9756 94.8041 34.1882 89.7594 23.6563 82.142C13.179 74.5642 6.00127 64.4983 6.00127 49.6309H4.00127C4.00127 65.298 11.6297 75.9119 22.4842 83.7626C33.2841 91.5737 47.3541 96.7063 60.3732 101.459L61.059 99.5806ZM106.854 136.596C106.854 126.353 101.347 119.273 92.9219 113.697C84.5464 108.153 73.1357 103.991 61.0591 99.5806L60.3731 101.459C72.5228 105.896 83.6811 109.979 91.818 115.364C99.9056 120.718 104.854 127.253 104.854 136.596H106.854ZM67.2351 165.386C78.7616 165.386 88.6352 162.493 95.6562 157.441C102.696 152.375 106.854 145.141 106.854 136.596H104.854C104.854 144.419 101.073 151.08 94.4881 155.817C87.8847 160.569 78.4489 163.386 67.2351 163.386V165.386ZM16.2805 146.723C18.337 148.622 37.0808 165.386 67.2351 165.386V163.386C37.8275 163.386 19.5545 147.024 17.6375 145.254L16.2805 146.723ZM13.8007 144.415L16.2776 146.72L17.6403 145.257L15.1634 142.951L13.8007 144.415ZM0.749238 160.728L15.2313 144.345L13.7328 143.02L-0.749238 159.404L0.749238 160.728ZM3.3628 161.934L0.696165 159.348L-0.696165 160.784L1.97047 163.37L3.3628 161.934ZM691.699 63.5582L738.626 1.60379L737.032 0.396209L690.105 62.3506L691.699 63.5582ZM705.956 81.1768L691.699 62.3507L690.105 63.5582L704.362 82.3842L705.956 81.1768ZM765.201 0.398384L704.36 81.1789L705.958 82.3821L766.799 1.60162L765.201 0.398384ZM737.829 2H766V0H737.829V2ZM738.346 182.895L691.695 122.214L690.109 123.433L736.761 184.114L738.346 182.895ZM766 182.504H737.554V184.504H766V182.504ZM704.411 104.828L765.206 184.113L766.794 182.896L705.998 103.611L704.411 104.828ZM691.695 123.433L705.998 104.829L704.412 103.61L690.109 122.214L691.695 123.433ZM277.618 56.8429C277.618 67.7971 273.748 76.4486 266.709 82.3791C259.647 88.3285 249.283 91.6335 236.142 91.6335V93.6335C249.596 93.6335 260.47 90.2508 267.997 83.9087C275.547 77.5478 279.618 68.304 279.618 56.8429H277.618ZM236.142 22.5429C249.495 22.5429 259.857 25.7282 266.864 31.5523C273.844 37.3542 277.618 45.8771 277.618 56.8429H279.618C279.618 45.383 275.651 36.2559 268.142 30.0142C260.66 23.7947 249.784 20.5429 236.142 20.5429V22.5429ZM189.436 22.5429H236.142V20.5429H189.436V22.5429ZM190.436 92.6335V21.5429H188.436V92.6335H190.436ZM236.142 91.6335H189.436V93.6335H236.142V91.6335ZM165.718 1V185H167.718V1H165.718ZM236.699 0H166.718V2H236.699V0ZM302.894 56.8429C302.894 39.8644 296.226 25.6221 284.572 15.6385C272.931 5.66642 256.386 0 236.699 0V2C256.012 2 272.064 7.55701 283.271 17.1574C294.464 26.7463 300.894 40.4254 300.894 56.8429H302.894ZM236.699 114.182C256.388 114.182 272.934 108.467 284.575 98.4071C296.229 88.3368 302.894 73.9712 302.894 56.8429H300.894C300.894 73.4166 294.462 87.2204 283.268 96.8939C272.061 106.578 256.01 112.182 236.699 112.182V114.182ZM189.436 114.182H236.699V112.182H189.436V114.182ZM190.436 185V113.182H188.436V185H190.436ZM166.718 186H189.436V184H166.718V186ZM339.443 186H361.973V184H339.443V186ZM338.443 1V185H340.443V1H338.443ZM361.973 0H339.443V2H361.973V0ZM362.973 185V1H360.973V185H362.973ZM431.977 40.1071C433.012 41.4852 463.125 77.8932 492.937 113.906C507.852 131.923 522.703 149.856 533.826 163.285C539.388 169.999 544.017 175.588 547.256 179.497C548.875 181.452 550.147 182.987 551.014 184.034C551.448 184.557 551.78 184.958 552.004 185.228C552.116 185.363 552.201 185.466 552.257 185.535C552.286 185.569 552.307 185.595 552.322 185.612C552.329 185.621 552.334 185.627 552.338 185.631C552.34 185.634 552.341 185.635 552.342 185.636C552.343 185.637 552.343 185.638 553.113 185C553.883 184.362 553.883 184.361 553.882 184.36C553.881 184.359 553.88 184.358 553.878 184.355C553.874 184.351 553.869 184.345 553.862 184.336C553.847 184.319 553.826 184.293 553.797 184.258C553.741 184.19 553.656 184.087 553.544 183.952C553.32 183.682 552.988 183.281 552.554 182.758C551.687 181.711 550.415 180.176 548.796 178.221C545.557 174.312 540.928 168.724 535.366 162.009C524.244 148.581 509.392 130.648 494.477 112.63C464.628 76.5725 434.573 40.2339 433.577 38.9063L431.977 40.1071ZM432.867 185C433.867 185 433.867 184.999 433.867 184.998C433.867 184.997 433.867 184.995 433.867 184.993C433.867 184.989 433.867 184.982 433.867 184.973C433.867 184.956 433.867 184.93 433.867 184.895C433.867 184.826 433.867 184.723 433.867 184.586C433.867 184.314 433.867 183.909 433.866 183.382C433.866 182.326 433.866 180.778 433.865 178.807C433.864 174.866 433.862 169.233 433.86 162.47C433.856 148.942 433.85 130.891 433.842 112.795C433.826 76.6253 433.804 40.2168 433.776 39.4701L431.778 39.5433C431.778 39.5422 431.778 39.5519 431.778 39.581C431.779 39.607 431.779 39.6421 431.779 39.6868C431.78 39.776 431.781 39.8994 431.782 40.0564C431.783 40.3701 431.785 40.8147 431.787 41.3816C431.79 42.5154 431.793 44.1363 431.796 46.1748C431.802 50.2515 431.808 55.9967 431.813 62.8505C431.824 76.5581 431.834 94.6994 431.842 112.796C431.85 130.892 431.856 148.943 431.86 162.47C431.862 169.234 431.864 174.866 431.865 178.808C431.866 180.779 431.866 182.327 431.866 183.382C431.867 183.91 431.867 184.314 431.867 184.587C431.867 184.723 431.867 184.827 431.867 184.896C431.867 184.93 431.867 184.957 431.867 184.974C431.867 184.983 431.867 184.989 431.867 184.994C431.867 184.996 431.867 184.998 431.867 184.999C431.867 185 431.867 185 432.867 185ZM410.035 186H432.867V184H410.035V186ZM409.035 1V185H411.035V1H409.035ZM429.19 0H410.035V2H429.19V0ZM550.305 145.888C549.273 144.512 519.165 108.105 489.358 72.0937C474.446 54.0764 459.596 36.1435 448.475 22.7149C442.914 16.0006 438.286 10.4124 435.047 6.50278C433.428 4.54796 432.156 3.01278 431.289 1.9663C430.856 1.44306 430.524 1.042 430.3 0.771749C430.188 0.636623 430.103 0.534198 430.046 0.465555C430.018 0.431234 429.996 0.405357 429.982 0.388061C429.975 0.379413 429.969 0.37291 429.966 0.368569C429.964 0.366398 429.963 0.364768 429.962 0.363681C429.961 0.362593 429.96 0.362048 429.19 1C428.42 1.63795 428.421 1.6385 428.422 1.63958C428.422 1.64067 428.424 1.6423 428.426 1.64447C428.429 1.64881 428.435 1.65531 428.442 1.66396C428.456 1.68125 428.478 1.70713 428.506 1.74145C428.563 1.81009 428.648 1.91251 428.76 2.04763C428.983 2.31788 429.316 2.71893 429.749 3.24216C430.616 4.28862 431.888 5.82378 433.507 7.77858C436.745 11.6882 441.374 17.2764 446.934 23.9906C458.056 37.4191 472.905 55.3519 487.818 73.369C517.662 109.426 547.712 145.763 548.706 147.088L550.305 145.888ZM549.421 1C548.421 1.00026 548.421 1.00081 548.421 1.0019C548.421 1.003 548.421 1.00464 548.421 1.00683C548.421 1.01121 548.421 1.01777 548.421 1.02649C548.421 1.04394 548.421 1.07004 548.421 1.10466C548.421 1.17389 548.421 1.27719 548.421 1.41347C548.421 1.68603 548.421 2.09049 548.421 2.61812C548.422 3.67336 548.422 5.22125 548.423 7.1918C548.424 11.1329 548.425 16.7647 548.427 23.5274C548.432 37.0527 548.438 55.1018 548.445 73.1966C548.461 109.365 548.482 145.769 548.506 146.521L550.505 146.455C550.505 146.457 550.505 146.454 550.505 146.446C550.505 146.438 550.504 146.428 550.504 146.415C550.504 146.388 550.504 146.353 550.503 146.308C550.503 146.218 550.502 146.095 550.501 145.937C550.5 145.623 550.498 145.178 550.497 144.611C550.494 143.476 550.491 141.855 550.488 139.816C550.483 135.738 550.477 129.992 550.472 123.138C550.462 109.431 550.453 91.2904 550.445 73.1957C550.438 55.1011 550.432 37.0521 550.427 23.5267C550.425 16.7641 550.424 11.1323 550.423 7.19124C550.422 5.22069 550.422 3.67282 550.421 2.61758C550.421 2.08996 550.421 1.6855 550.421 1.41295C550.421 1.27667 550.421 1.17337 550.421 1.10414C550.421 1.06952 550.421 1.04342 550.421 1.02598C550.421 1.01725 550.421 1.0107 550.421 1.00632C550.421 1.00413 550.421 1.00249 550.421 1.00139C550.421 1.00029 550.421 0.999743 549.421 1ZM572.247 0H549.421V2H572.247V0ZM573.247 185V1H571.247V185H573.247ZM553.113 186H572.247V184H553.113V186ZM598.977 185.603L667.825 94.6037L666.23 93.397L597.382 184.397L598.977 185.603ZM626.328 184H598.18V186H626.328V184ZM694.611 93.3273L625.532 184.396L627.125 185.604L696.205 94.536L694.611 93.3273ZM625.013 1.59942L694.607 94.5311L696.208 93.3323L626.614 0.400576L625.013 1.59942ZM597.78 2H625.814V0H597.78V2ZM667.83 93.4031L598.582 0.402778L596.978 1.59722L666.226 94.5975L667.83 93.4031Z" fill="#45474E"/>
</svg>
