<svg width="100" height="24" viewBox="0 0 100 24" fill="none" xmlns="http://www.w3.org/2000/svg">
<path fill-rule="evenodd" clip-rule="evenodd" d="M8.73057 23.8468C3.53323 23.8468 0.659848 21.2451 0.34925 20.9504L0 20.6153L1.89672 18.492L2.22112 18.7908C2.48133 19.0286 4.90538 21.1752 8.8058 21.1752C11.7841 21.1752 13.8637 19.6948 13.8637 17.5736C13.8637 15.035 11.1249 14.0446 7.952 12.898C4.53335 11.663 0.655017 10.26 0.655017 6.30267C0.655017 3.20411 3.81414 0 9.10052 0C13.3819 0 15.8515 1.96016 16.1214 2.18222L16.6239 2.57768L14.8908 4.84077L14.3296 4.3713C14.2475 4.30344 12.1955 2.67158 9.1371 2.67158C5.73847 2.67158 3.70923 4.50289 3.70923 6.2732C3.70923 8.492 6.28006 9.40809 9.25893 10.4696L9.26894 10.4732C12.6793 11.6808 16.9172 13.1831 16.9172 17.5126C16.9172 21.2424 13.551 23.8468 8.73057 23.8468ZM30.8583 11.9189C34.3481 11.9189 36.4318 10.1808 36.4318 7.26798C36.4318 4.35378 34.4005 2.68079 30.8583 2.68079H24.7299V11.9189H30.8583ZM21.7488 23.9218V0.0112764H30.9315C36.0487 0.0112764 39.486 2.92821 39.486 7.26798C39.486 11.6475 36.0487 14.5891 30.9315 14.5891H24.7299V23.9218H21.7488ZM47.2958 23.9215H44.3175V0.0110036H47.2958V23.9215ZM72.1764 23.9218C72.1764 23.9218 56.7403 5.36676 56.4753 5.01517C56.4822 5.20296 56.487 23.9218 56.487 23.9218H53.508V0.0112764H56.0073C56.0073 0.0112764 71.4413 18.5663 71.7056 18.9172C71.6994 18.7274 71.6946 0.0112764 71.6946 0.0112764H74.6729V23.9218H72.1764ZM87.2219 12.1112L78.1766 23.9263H81.8748L90.9505 12.1023L81.8072 0.0363754H78.1242L87.2219 12.1112Z" fill="white"/>
<path fill-rule="evenodd" clip-rule="evenodd" d="M96.3176 0.0361328L90.1836 8.13105L92.0472 10.5908L99.9999 0.0361328H96.3176Z" fill="#B4E300"/>
<path fill-rule="evenodd" clip-rule="evenodd" d="M90.1836 16.0243L96.2485 23.9267H99.9467L92.043 13.6016L90.1836 16.0243Z" fill="#B4E300"/>
</svg>
